<?xml version="1.0" encoding="utf-8"?>
<!-- Generator: Adobe Illustrator 23.0.0, SVG Export Plug-In . SVG Version: 6.00 Build 0)  -->
<svg version="1.1" id="Layer_1" xmlns="http://www.w3.org/2000/svg" xmlns:xlink="http://www.w3.org/1999/xlink" x="0px" y="0px"
	 viewBox="0 0 7181.3 2800.1" style="enable-background:new 0 0 7181.3 2800.1;" xml:space="preserve">
<style type="text/css">
	.st0{fill:#FFFFFF;}
	.st1{font-family:'MyriadPro-Regular';}
	.st2{font-size:482.5303px;}
	.st3{fill:#45B37E;}
	.st4{fill:#FFBE00;}
	.st5{fill:#EA3943;}
</style>
<g id="texte">
	<text transform="matrix(1 0 0 1 1450.0746 657.7327)" class="st0 st1 st2">Z</text>
	<text transform="matrix(1 0 0 1 1710.6586 657.7327)" class="st0 st1 st2">one stable</text>
	<text transform="matrix(1 0 0 1 1450.0746 1597.4955)" class="st0 st1 st2">Z</text>
	<text transform="matrix(1 0 0 1 1710.6586 1597.4955)" class="st0 st1 st2">one légèrement a risque</text>
	<text transform="matrix(1 0 0 1 3455.0081 1597.4955)" class="st0 st1 st2"></text>
	<text transform="matrix(1 0 0 1 3608.1331 1597.4955)" class="st0 st1 st2"></text>
	<text transform="matrix(1 0 0 1 4493.6226 1597.4955)" class="st0 st1 st2"></text>
	<text transform="matrix(1 0 0 1 4760.1968 1597.4955)" class="st0 st1 st2"> </text>
	<text transform="matrix(1 0 0 1 5356.1089 1597.4955)" class="st0 st1 st2"></text>
	<text transform="matrix(1 0 0 1 5516.5718 1597.4955)" class="st0 st1 st2"></text>
	<text transform="matrix(1 0 0 1 1450.0746 2495.0461)" class="st0 st1 st2">Z</text>
	<text transform="matrix(1 0 0 1 1710.6586 2495.0461)" class="st0 st1 st2">one à </text>
	<text transform="matrix(1 0 0 1 2922.9807 2495.0461)" class="st0 st1 st2">r</text>
	<text transform="matrix(1 0 0 1 3082.259 2495.0461)" class="st0 st1 st2">isque</text>
</g>
<g id="cercle">
	<circle class="st3" cx="898.4" cy="507.2" r="241.4"/>
	<circle class="st4" cx="898.4" cy="1423.7" r="241.4"/>
	<circle class="st5" cx="898.4" cy="2292.9" r="241.4"/>
</g>
</svg>
