<?xml version="1.0" encoding="utf-8"?>
<!-- Generator: Adobe Illustrator 23.0.0, SVG Export Plug-In . SVG Version: 6.00 Build 0)  -->
<svg version="1.1" id="Layer_1" xmlns="http://www.w3.org/2000/svg" xmlns:xlink="http://www.w3.org/1999/xlink" x="0px" y="0px"
	 viewBox="0 0 178.4 154.4" style="enable-background:new 0 0 178.4 154.4;" xml:space="preserve">
<style type="text/css">
	.st0{fill:#515151;}
</style>
<path class="st0" d="M114.5,112.4c-32.1,23.4-65,10.2-79.8-9.7C18.2,80.4,20.6,48.9,40.7,30C61.3,10.4,92.4,9.2,114,27.2
	c12.4,10.3,19,23.6,20,39.8c0.9,16.2-4.9,29.9-16,41.9c6.7,7,13.1,13.7,19.5,20.4c5.8,6,17.3,18,17.3,18l-3.2,3.4
	c0,0-22.9-23.7-34.3-35.6C116.5,114.3,115.6,113.5,114.5,112.4z M28.6,69c0,28.6,22.3,51.2,50.3,51.2c27.6,0,50.4-22.7,50.4-50.2
	c0.1-28.2-22.7-51.1-50.7-51C51.2,19.3,28.6,41.9,28.6,69z"/>
</svg>
